<svg width="1512" height="558" viewBox="0 0 1512 558" fill="none" xmlns="http://www.w3.org/2000/svg">
<path d="M1421.42 7.08763C1429.9 7.08766 1438.02 10.5587 1443.87 16.6927L1523.99 100.603C1529.51 106.375 1532.58 114.047 1532.58 122.025V173.052C1532.58 181.139 1529.42 188.908 1523.78 194.702L1230.93 495.264C1229.52 496.712 1228.73 498.656 1228.73 500.678V537.132C1228.73 541.416 1232.2 544.889 1236.49 544.889H1524.82C1529.11 544.889 1532.58 548.361 1532.58 552.646V594.015C1532.58 598.299 1529.11 601.772 1524.82 601.772H1202.86C1185.72 601.772 1171.82 587.879 1171.82 570.745V487.011C1171.82 478.925 1174.98 471.158 1180.62 465.364L1473.47 164.803C1474.88 163.355 1475.67 161.411 1475.67 159.39V135.493C1475.67 133.499 1474.91 131.581 1473.53 130.138L1412.64 66.3717C1411.18 64.8385 1409.15 63.9707 1407.03 63.9705H1285.02C1282.96 63.9705 1280.99 64.7886 1279.54 66.243L1205.76 139.98C1202.73 143.009 1197.81 143.009 1194.79 139.98L1165.52 110.726C1162.49 107.696 1162.49 102.786 1165.52 99.7571L1249.14 16.1751C1254.96 10.3567 1262.86 7.08789 1271.09 7.08763H1421.42ZM990.958 7.08763C1048.1 7.08763 1094.43 53.3918 1094.43 110.511V498.325L1094.4 500.996C1093 555.994 1048.65 600.321 993.628 601.715L990.958 601.748H863.758L861.089 601.715C806.066 600.321 761.715 555.994 760.321 500.996L760.287 498.325V110.511C760.287 53.3923 806.614 7.08828 863.758 7.08763H990.958ZM609.533 0C613.816 0.000406294 617.293 3.47335 617.293 7.75676V260.043C617.293 264.327 620.767 267.799 625.053 267.799H680.767C685.054 267.799 688.528 271.274 688.528 275.556V316.926C688.528 321.21 685.054 324.682 680.767 324.682H625.053C620.767 324.682 617.293 328.155 617.293 332.439V593.989C617.293 598.273 613.819 601.746 609.533 601.746H568.144C563.858 601.746 560.384 598.273 560.384 593.989V332.439C560.384 328.157 556.907 324.682 552.624 324.682H356.936C354.883 324.682 352.911 323.868 351.455 322.417L283.886 255.054C280.854 252.031 280.846 247.124 283.865 244.09L524.629 2.28511C526.086 0.822826 528.067 0.0003132 530.129 0H609.533ZM2.25584 191.02C4.27545 189.006 7.54697 189.006 9.56652 191.02L173.314 354.386L236.177 291.848C238.198 289.839 241.465 289.839 243.483 291.853L275.696 323.992C277.724 326.014 277.719 329.3 275.688 331.32L229.233 377.493V410.948L376.588 557.962C378.614 559.981 378.614 563.262 376.588 565.281L344.372 597.423C342.352 599.437 339.08 599.437 337.062 597.423L173.314 434.058L9.56652 597.423C7.54697 599.437 4.27545 599.437 2.25584 597.423L-29.9601 565.281C-31.9847 563.262 -31.9842 559.981 -29.9601 557.962L117.395 410.948V377.493L-29.9601 230.481C-31.9842 228.461 -31.9845 225.181 -29.9601 223.161L2.25584 191.02ZM817.196 464.754V498.325C817.196 524.028 838.043 544.866 863.758 544.866H990.958C1016.67 544.866 1037.52 524.028 1037.52 498.325V244.532L817.196 464.754ZM863.758 63.9705C838.043 63.9713 817.196 84.8077 817.196 110.511V384.311L1037.52 164.089V110.511C1037.52 84.8075 1016.67 63.9705 990.958 63.9705H863.758ZM553.441 56.8829C551.597 56.8831 549.825 57.6203 548.523 58.9281L364.304 243.941C361.282 246.975 361.293 251.882 364.324 254.905L374.984 265.534C376.438 266.985 378.412 267.799 380.466 267.799H552.624C556.91 267.799 560.384 264.327 560.384 260.043V63.819C560.384 59.9884 557.275 56.8829 553.441 56.8829Z" fill="white" fill-opacity="0.12"/>
</svg>
